<svg xmlns="http://www.w3.org/2000/svg" viewBox="0 0 64 64">
  <!-- Top face -->
  <polygon points="32,4 58,18 32,32 6,18" fill="#f0f0f0"/>
  <!-- Left face -->
  <polygon points="6,18 32,32 32,56 6,42" fill="#2dc653"/>
  <!-- Right face -->
  <polygon points="58,18 32,32 32,56 58,42" fill="#e63946"/>
  
  <!-- Top face grid lines -->
  <line x1="32" y1="4" x2="32" y2="32" stroke="#1a1a1a" stroke-width="1.5"/>
  <line x1="19" y1="11" x2="45" y2="25" stroke="#1a1a1a" stroke-width="1.5"/>
  <line x1="45" y1="11" x2="19" y2="25" stroke="#1a1a1a" stroke-width="1.5"/>
  <line x1="6" y1="18" x2="58" y2="18" stroke="#1a1a1a" stroke-width="1.5"/>

  <!-- Left face grid lines -->
  <line x1="6" y1="18" x2="32" y2="32" stroke="#1a1a1a" stroke-width="1.5"/>
  <line x1="6" y1="28" x2="32" y2="42" stroke="#1a1a1a" stroke-width="1.5"/>
  <line x1="6" y1="38" x2="32" y2="52" stroke="#1a1a1a" stroke-width="1.5"/>
  <line x1="14" y1="22" x2="14" y2="46" stroke="#1a1a1a" stroke-width="1.5"/>
  <line x1="23" y1="27" x2="23" y2="51" stroke="#1a1a1a" stroke-width="1.5"/>

  <!-- Right face grid lines -->
  <line x1="32" y1="32" x2="58" y2="18" stroke="#1a1a1a" stroke-width="1.5"/>
  <line x1="32" y1="42" x2="58" y2="28" stroke="#1a1a1a" stroke-width="1.5"/>
  <line x1="32" y1="52" x2="58" y2="38" stroke="#1a1a1a" stroke-width="1.5"/>
  <line x1="41" y1="27" x2="41" y2="51" stroke="#1a1a1a" stroke-width="1.5"/>
  <line x1="50" y1="22" x2="50" y2="46" stroke="#1a1a1a" stroke-width="1.5"/>

  <!-- Outline -->
  <polygon points="32,4 58,18 58,42 32,56 6,42 6,18" fill="none" stroke="#1a1a1a" stroke-width="2" stroke-linejoin="round"/>
</svg>
